<?xml version="1.0" encoding="UTF-8" standalone="no"?><!-- Generator: Gravit.io --><svg xmlns="http://www.w3.org/2000/svg" 
xmlns:xlink="http://www.w3.org/1999/xlink" style="isolation:isolate" viewBox="0 0 1024 1024" width="1024pt" 
height="1024pt"><defs><clipPath id="_clipPath_XNKdh05lImExL6dW6EdEewoXR9fjTtXi"><rect width="1024" height="1024"/></clipPath></defs><g clip-path="url(#_clipPath_XNKdh05lImExL6dW6EdEewoXR9fjTtXi)"><clipPath id="_clipPath_1NJpTJXwxPDNRObls24dkFT44o66CEVQ"><rect x="0" y="0" width="1024" height="1024" transform="matrix(1,0,0,1,0,0)" fill="rgb(255,255,255)"/></clipPath><g clip-path="url(#_clipPath_1NJpTJXwxPDNRObls24dkFT44o66CEVQ)"><g><g><path d=" M 256.448 56.362 C 95.353 144.495 -14 315.578 -14 512 C -14 798.443 218.557 1031 505 1031 C 791.443 1031 1024 798.443 1024 512 C 1024 225.557 791.443 -7 505 -7 C 480.09 -7 455.588 -5.241 431.61 -1.841 L 431.61 244.391 C 479.05 226.145 535.005 211.548 599.474 211.548 C 730.846 211.548 781.935 293.047 781.935 425.635 L 781.935 578.902 L 781.935 578.902 C 781.935 720.005 741.794 828.266 497.296 828.266 C 434.043 828.266 337.947 822.184 256.448 808.803 L 256.448 56.362 Z  M 431.61 396.441 C 464.453 379.412 505.811 363.598 543.52 363.598 C 589.743 363.598 606.773 387.927 606.773 426.852 L 606.773 580.119 C 606.773 636.073 590.959 676.215 503.378 676.215 C 479.05 676.215 457.155 676.215 431.61 673.782 L 431.61 396.441 L 431.61 396.441 Z " fill-rule="evenodd" fill="rgb(255,255,255)"/></g></g></g><rect x="0" y="0" width="256" height="1024" transform="matrix(1,0,0,1,0,0)" fill="rgb(255,255,255)"/>
<rect x="0" y="921.728" width="512" height="102.272" transform="matrix(1,0,0,1,0,0)" fill="rgb(255,255,255)"/></g></svg>