<?xml version="1.0" encoding="UTF-8" standalone="no"?><!-- Generator: Gravit.io --><svg xmlns="http://www.w3.org/2000/svg" xmlns:xlink="http://www.w3.org/1999/xlink" style="isolation:isolate" viewBox="0 0 1024 1024" width="1024pt" height="1024pt"><defs><clipPath id="_clipPath_F4h6KmjS9HtVxzC6m1B3oOvADkFpBgcS"><rect width="1024" height="1024"/></clipPath></defs><g clip-path="url(#_clipPath_F4h6KmjS9HtVxzC6m1B3oOvADkFpBgcS)"><g style="isolation:isolate"><path d=" M 266.8 62.507 C 107.878 149.452 0 318.227 0 512 C 0 794.58 229.42 1024 512 1024 C 794.58 1024 1024 794.58 1024 512 C 1024 229.42 794.58 0 512 0 C 487.426 0 463.254 1.735 439.6 5.089 L 439.6 248 C 486.4 230 541.6 215.6 605.2 215.6 C 734.8 215.6 785.2 296 785.2 426.8 L 785.2 578 L 785.2 578 C 785.2 717.2 745.6 824 504.4 824 C 442 824 347.2 818 266.8 804.8 L 266.8 62.507 Z  M 439.6 398 C 472 381.2 512.8 365.6 550 365.6 C 595.6 365.6 612.4 389.6 612.4 428 L 612.4 579.2 C 612.4 634.4 596.8 674 510.4 674 C 486.4 674 464.8 674 439.6 671.6 L 439.6 398 L 439.6 398 Z " fill-rule="evenodd" fill="rgb(255,255,255)"/></g></g></svg>