<?xml version="1.0" encoding="UTF-8" standalone="no"?><!-- Generator: Gravit.io --><svg xmlns="http://www.w3.org/2000/svg" xmlns:xlink="http://www.w3.org/1999/xlink" style="isolation:isolate" viewBox="0 0 1280 250" width="1280pt" height="250pt"><defs><clipPath id="_clipPath_AO4cBv9J70vlQhXlOrR44ZREbZ79aAHv"><rect width="1280" height="250"/></clipPath></defs><g clip-path="url(#_clipPath_AO4cBv9J70vlQhXlOrR44ZREbZ79aAHv)"><path d=" M 168.838 187.822 L 168.838 166.216 C 168.838 145.608 154.545 129.653 136.264 125.332 C 153.881 117.687 160.861 106.386 160.861 90.432 L 160.861 67.829 C 160.861 37.914 143.909 19.3 97.707 19.3 L 10.288 19.3 L 10.288 240.671 L 104.687 240.671 C 148.895 240.671 168.838 219.066 168.838 187.822 Z  M 111.002 94.42 C 111.002 103.395 104.355 110.042 91.059 110.042 L 60.147 110.042 L 60.147 59.519 L 91.059 59.519 C 105.019 59.519 111.002 65.502 111.002 75.142 L 111.002 94.42 Z  M 118.98 181.174 C 118.98 197.128 106.681 200.452 91.059 200.452 L 60.147 200.452 L 60.147 148.932 L 98.039 148.932 C 111.335 148.932 118.98 155.247 118.98 167.546 L 118.98 181.174 Z  M 265.231 243.995 C 322.734 243.995 338.357 211.754 338.357 178.515 L 338.357 140.955 C 338.357 107.716 322.734 75.474 265.231 75.474 C 207.728 75.474 192.105 107.716 192.105 140.955 L 192.105 178.515 C 192.105 211.754 207.728 243.995 265.231 243.995 Z  M 265.231 203.776 C 247.947 203.776 239.969 195.134 239.969 179.844 L 239.969 139.625 C 239.969 124.335 247.947 115.693 265.231 115.693 C 282.515 115.693 290.493 124.335 290.493 139.625 L 290.493 179.844 C 290.493 195.134 282.515 203.776 265.231 203.776 Z  M 438.073 243.995 C 495.577 243.995 511.199 211.754 511.199 178.515 L 511.199 140.955 C 511.199 107.716 495.577 75.474 438.073 75.474 C 380.57 75.474 364.948 107.716 364.948 140.955 L 364.948 178.515 C 364.948 211.754 380.57 243.995 438.073 243.995 Z  M 438.073 203.776 C 420.789 203.776 412.812 195.134 412.812 179.844 L 412.812 139.625 C 412.812 124.335 420.789 115.693 438.073 115.693 C 455.358 115.693 463.335 124.335 463.335 139.625 L 463.335 179.844 C 463.335 195.134 455.358 203.776 438.073 203.776 Z  M 593.964 240.671 L 593.964 6.005 L 546.1 12.652 L 546.1 240.671 L 593.964 240.671 Z  M 600.279 159.236 L 643.49 240.671 L 694.678 240.671 L 650.138 159.236 L 692.684 78.798 L 641.496 78.798 L 600.279 159.236 Z  M 822.316 10.658 C 809.352 7.999 799.381 6.005 785.753 6.005 C 746.531 6.005 730.908 24.618 730.908 57.857 L 730.908 82.122 L 706.312 82.122 L 706.312 121.344 L 730.908 121.344 L 730.908 240.671 L 778.773 240.671 L 778.773 121.344 L 813.673 121.344 L 816.997 82.122 L 778.773 82.122 L 778.773 63.176 C 778.773 52.539 779.77 45.891 795.06 45.891 C 800.71 45.891 809.685 46.889 816.333 48.218 L 822.316 10.658 Z  M 969.896 240.671 L 969.896 137.298 C 969.896 92.426 957.598 75.474 901.424 75.474 C 882.81 75.474 858.546 78.798 843.256 83.451 L 849.571 119.349 C 864.861 116.358 879.154 114.696 893.447 114.696 C 919.041 114.696 922.032 120.347 922.032 136.966 L 922.032 149.264 L 887.131 149.264 C 853.893 149.264 838.935 162.228 838.935 194.802 C 838.935 222.39 851.233 243.995 881.148 243.995 C 892.117 243.995 908.737 240.671 927.351 230.367 L 930.674 240.671 L 969.896 240.671 Z  M 922.032 201.117 C 914.72 204.441 907.74 206.768 897.768 206.768 C 888.461 206.768 884.805 203.111 884.805 194.137 C 884.805 185.162 888.793 182.503 899.097 182.503 L 922.032 182.503 L 922.032 201.117 Z  M 1047.676 140.622 C 1047.676 124.003 1054.656 116.358 1073.934 116.358 C 1083.241 116.358 1097.202 118.02 1107.173 120.347 L 1113.156 80.46 C 1096.869 76.804 1085.236 75.474 1073.934 75.474 C 1021.417 75.474 999.811 95.085 999.811 141.287 L 999.811 178.182 C 999.811 224.384 1021.417 243.995 1073.934 243.995 C 1085.236 243.995 1096.869 242.666 1113.156 239.01 L 1107.173 199.123 C 1095.54 201.782 1086.233 203.111 1073.934 203.111 C 1054.656 203.111 1047.676 195.467 1047.676 178.847 L 1047.676 140.622 Z  M 1269.712 176.52 L 1269.712 142.617 C 1269.712 107.383 1258.078 75.474 1204.231 75.474 C 1150.384 75.474 1134.762 105.389 1134.762 140.29 L 1134.762 178.182 C 1134.762 218.069 1154.705 243.995 1207.222 243.995 C 1229.825 243.995 1253.425 239.01 1268.05 233.691 L 1261.069 197.793 C 1246.777 202.114 1226.833 204.773 1211.876 204.773 C 1189.938 204.773 1182.626 199.788 1182.626 181.174 L 1182.626 176.52 L 1269.712 176.52 Z  M 1224.507 140.622 L 1182.626 140.622 L 1182.626 133.642 C 1182.626 122.341 1187.944 113.034 1204.563 113.034 C 1221.183 113.034 1224.507 122.341 1224.507 133.642 L 1224.507 140.622 Z " fill="rgb(255,255,255)"/></g></svg>