<?xml version="1.0" encoding="UTF-8" standalone="no"?><!-- Generator: Gravit.io --><svg xmlns="http://www.w3.org/2000/svg" xmlns:xlink="http://www.w3.org/1999/xlink" style="isolation:isolate" viewBox="0 0 1280 500" width="1280pt" height="500pt"><defs><clipPath id="_clipPath_j9ccnYWpygHxRIdgY1AFAQVweZyzQnuf"><rect width="1280" height="500"/></clipPath></defs><g clip-path="url(#_clipPath_j9ccnYWpygHxRIdgY1AFAQVweZyzQnuf)"><clipPath id="_clipPath_mqKR8rhC9tBT5QLYgRMNeBhlKblaGgRl"><rect x="0" y="251" width="1280" height="250" transform="matrix(1,0,0,1,0,0)" fill="rgb(255,255,255)"/></clipPath><g clip-path="url(#_clipPath_mqKR8rhC9tBT5QLYgRMNeBhlKblaGgRl)"><g><path d=" M 168.838 438.822 L 168.838 417.216 C 168.838 396.608 154.545 380.653 136.264 376.332 C 153.881 368.687 160.861 357.386 160.861 341.432 L 160.861 318.829 C 160.861 288.914 143.909 270.3 97.707 270.3 L 10.288 270.3 L 10.288 491.671 L 104.687 491.671 C 148.895 491.671 168.838 470.066 168.838 438.822 Z  M 111.002 345.42 C 111.002 354.395 104.355 361.042 91.059 361.042 L 60.147 361.042 L 60.147 310.519 L 91.059 310.519 C 105.019 310.519 111.002 316.502 111.002 326.142 L 111.002 345.42 Z  M 118.98 432.174 C 118.98 448.128 106.681 451.452 91.059 451.452 L 60.147 451.452 L 60.147 399.932 L 98.039 399.932 C 111.335 399.932 118.98 406.247 118.98 418.546 L 118.98 432.174 Z  M 265.231 494.995 C 322.734 494.995 338.357 462.754 338.357 429.515 L 338.357 391.955 C 338.357 358.716 322.734 326.474 265.231 326.474 C 207.728 326.474 192.105 358.716 192.105 391.955 L 192.105 429.515 C 192.105 462.754 207.728 494.995 265.231 494.995 Z  M 265.231 454.776 C 247.947 454.776 239.969 446.134 239.969 430.844 L 239.969 390.625 C 239.969 375.335 247.947 366.693 265.231 366.693 C 282.515 366.693 290.493 375.335 290.493 390.625 L 290.493 430.844 C 290.493 446.134 282.515 454.776 265.231 454.776 Z  M 438.073 494.995 C 495.577 494.995 511.199 462.754 511.199 429.515 L 511.199 391.955 C 511.199 358.716 495.577 326.474 438.073 326.474 C 380.57 326.474 364.948 358.716 364.948 391.955 L 364.948 429.515 C 364.948 462.754 380.57 494.995 438.073 494.995 Z  M 438.073 454.776 C 420.789 454.776 412.812 446.134 412.812 430.844 L 412.812 390.625 C 412.812 375.335 420.789 366.693 438.073 366.693 C 455.358 366.693 463.335 375.335 463.335 390.625 L 463.335 430.844 C 463.335 446.134 455.358 454.776 438.073 454.776 Z  M 593.964 491.671 L 593.964 257.005 L 546.1 263.652 L 546.1 491.671 L 593.964 491.671 Z  M 600.279 410.236 L 643.49 491.671 L 694.678 491.671 L 650.138 410.236 L 692.684 329.798 L 641.496 329.798 L 600.279 410.236 Z  M 822.316 261.658 C 809.352 258.999 799.381 257.005 785.753 257.005 C 746.531 257.005 730.908 275.618 730.908 308.857 L 730.908 333.122 L 706.312 333.122 L 706.312 372.344 L 730.908 372.344 L 730.908 491.671 L 778.773 491.671 L 778.773 372.344 L 813.673 372.344 L 816.997 333.122 L 778.773 333.122 L 778.773 314.176 C 778.773 303.539 779.77 296.891 795.06 296.891 C 800.71 296.891 809.685 297.889 816.333 299.218 L 822.316 261.658 Z  M 969.896 491.671 L 969.896 388.298 C 969.896 343.426 957.598 326.474 901.424 326.474 C 882.81 326.474 858.546 329.798 843.256 334.451 L 849.571 370.349 C 864.861 367.358 879.154 365.696 893.447 365.696 C 919.041 365.696 922.032 371.347 922.032 387.966 L 922.032 400.264 L 887.131 400.264 C 853.893 400.264 838.935 413.228 838.935 445.802 C 838.935 473.39 851.233 494.995 881.148 494.995 C 892.117 494.995 908.737 491.671 927.351 481.367 L 930.674 491.671 L 969.896 491.671 Z  M 922.032 452.117 C 914.72 455.441 907.74 457.768 897.768 457.768 C 888.461 457.768 884.805 454.111 884.805 445.137 C 884.805 436.162 888.793 433.503 899.097 433.503 L 922.032 433.503 L 922.032 452.117 Z  M 1047.676 391.622 C 1047.676 375.003 1054.656 367.358 1073.934 367.358 C 1083.241 367.358 1097.202 369.02 1107.173 371.347 L 1113.156 331.46 C 1096.869 327.804 1085.236 326.474 1073.934 326.474 C 1021.417 326.474 999.811 346.085 999.811 392.287 L 999.811 429.182 C 999.811 475.384 1021.417 494.995 1073.934 494.995 C 1085.236 494.995 1096.869 493.666 1113.156 490.01 L 1107.173 450.123 C 1095.54 452.782 1086.233 454.111 1073.934 454.111 C 1054.656 454.111 1047.676 446.467 1047.676 429.847 L 1047.676 391.622 Z  M 1269.712 427.52 L 1269.712 393.617 C 1269.712 358.383 1258.078 326.474 1204.231 326.474 C 1150.384 326.474 1134.762 356.389 1134.762 391.29 L 1134.762 429.182 C 1134.762 469.069 1154.705 494.995 1207.222 494.995 C 1229.825 494.995 1253.425 490.01 1268.05 484.691 L 1261.069 448.793 C 1246.777 453.114 1226.833 455.773 1211.876 455.773 C 1189.938 455.773 1182.626 450.788 1182.626 432.174 L 1182.626 427.52 L 1269.712 427.52 Z  M 1224.507 391.622 L 1182.626 391.622 L 1182.626 384.642 C 1182.626 373.341 1187.944 364.034 1204.563 364.034 C 1221.183 364.034 1224.507 373.341 1224.507 384.642 L 1224.507 391.622 Z " fill="rgb(255,255,255)"/></g></g><path d=" M 1140.059 208.5 L 1135.778 181.25 C 1130.489 183 1124.696 183.5 1120.667 183.5 C 1116.133 183.5 1113.111 181.75 1113.111 176.75 L 1113.111 117.75 L 1139.052 117.75 L 1141.067 88.75 L 1113.111 88.75 L 1113.111 54.5 L 1076.844 59.5 L 1076.844 88.75 L 1060.222 88.75 L 1060.222 117.75 L 1076.844 117.75 L 1076.844 181.75 C 1076.844 204.25 1090.444 213 1113.867 213 C 1122.178 213 1132 211.25 1140.059 208.5 Z  M 1212.593 213 C 1256.163 213 1268 188.75 1268 163.75 L 1268 135.5 C 1268 110.5 1256.163 86.25 1212.593 86.25 C 1169.022 86.25 1157.185 110.5 1157.185 135.5 L 1157.185 163.75 C 1157.185 188.75 1169.022 213 1212.593 213 Z  M 1212.593 182.75 C 1199.496 182.75 1193.452 176.25 1193.452 164.75 L 1193.452 134.5 C 1193.452 123 1199.496 116.5 1212.593 116.5 C 1225.689 116.5 1231.733 123 1231.733 134.5 L 1231.733 164.75 C 1231.733 176.25 1225.689 182.75 1212.593 182.75 Z  M 245.23 44 L 207.956 44 L 179.748 163 L 151.037 44 L 104.948 44 L 75.733 163 L 47.274 44 L 10 44 L 51.304 210.5 L 99.407 210.5 L 127.867 84 L 156.074 210.5 L 204.178 210.5 L 245.23 44 Z  M 358.815 162.25 L 358.815 136.75 C 358.815 110.25 350 86.25 309.2 86.25 C 268.4 86.25 256.563 108.75 256.563 135 L 256.563 163.5 C 256.563 193.5 271.674 213 311.467 213 C 328.593 213 346.474 209.25 357.556 205.25 L 352.267 178.25 C 341.437 181.5 326.326 183.5 314.993 183.5 C 298.37 183.5 292.83 179.75 292.83 165.75 L 292.83 162.25 L 358.815 162.25 Z  M 324.563 135.25 L 292.83 135.25 L 292.83 130 C 292.83 121.5 296.859 114.5 309.452 114.5 C 322.044 114.5 324.563 121.5 324.563 130 L 324.563 135.25 Z  M 421.526 210.5 L 421.526 34 L 385.259 39 L 385.259 210.5 L 421.526 210.5 Z  M 482.978 135.25 C 482.978 122.75 488.267 117 502.874 117 C 509.926 117 520.504 118.25 528.059 120 L 532.593 90 C 520.252 87.25 511.437 86.25 502.874 86.25 C 463.081 86.25 446.711 101 446.711 135.75 L 446.711 163.5 C 446.711 198.25 463.081 213 502.874 213 C 511.437 213 520.252 212 532.593 209.25 L 528.059 179.25 C 519.244 181.25 512.193 182.25 502.874 182.25 C 488.267 182.25 482.978 176.5 482.978 164 L 482.978 135.25 Z  M 604.874 213 C 648.444 213 660.281 188.75 660.281 163.75 L 660.281 135.5 C 660.281 110.5 648.444 86.25 604.874 86.25 C 561.304 86.25 549.467 110.5 549.467 135.5 L 549.467 163.75 C 549.467 188.75 561.304 213 604.874 213 Z  M 604.874 182.75 C 591.778 182.75 585.733 176.25 585.733 164.75 L 585.733 134.5 C 585.733 123 591.778 116.5 604.874 116.5 C 617.97 116.5 624.015 123 624.015 134.5 L 624.015 164.75 C 624.015 176.25 617.97 182.75 604.874 182.75 Z  M 794.519 210.5 L 794.519 130 C 802.326 125.75 814.415 121.25 820.963 121.25 C 827.259 121.25 829.778 124.5 829.778 130 L 829.778 210.5 L 866.044 210.5 L 866.044 125.25 C 866.044 101.75 858.741 86.25 837.837 86.25 C 820.963 86.25 802.578 91.25 788.726 98 C 784.444 90.5 777.141 86.25 766.311 86.25 C 752.207 86.25 732.563 90.75 717.452 98 L 713.674 88.75 L 686.726 88.75 L 686.726 210.5 L 722.993 210.5 L 722.993 130 C 730.8 125.75 742.889 121.25 749.437 121.25 C 755.733 121.25 758.252 124.5 758.252 130 L 758.252 210.5 L 794.519 210.5 Z  M 993.481 162.25 L 993.481 136.75 C 993.481 110.25 984.667 86.25 943.867 86.25 C 903.067 86.25 891.23 108.75 891.23 135 L 891.23 163.5 C 891.23 193.5 906.341 213 946.133 213 C 963.259 213 981.141 209.25 992.222 205.25 L 986.933 178.25 C 976.104 181.5 960.993 183.5 949.659 183.5 C 933.037 183.5 927.496 179.75 927.496 165.75 L 927.496 162.25 L 993.481 162.25 Z  M 959.23 135.25 L 927.496 135.25 L 927.496 130 C 927.496 121.5 931.526 114.5 944.119 114.5 C 956.711 114.5 959.23 121.5 959.23 130 L 959.23 135.25 Z " fill="rgb(255,255,255)"/></g></svg>